<svg id="logo" viewBox="0 0 100 54" fill="none" xmlns="http://www.w3.org/2000/svg">
  <title>Home Logo | Tufan Calisir</title>
  <path d="M7.79297 4.9375V22H4.95703V4.9375h2.83594Zm4.34763 0v2.39062H.65625V4.9375H12.1406Zm6.0703 13.3242 2.7305-13.3242h1.6875l-.0703 3.33984L19.6055 22h-1.7696l.375-3.7383ZM16.4766 4.9375l2.1679 13.2305.0938 3.832H16.875L13.6523 4.9375h2.8243Zm9.1172 13.1836 2.1445-13.1836h2.8125L27.3398 22h-1.8632l.1172-3.8789ZM23.3086 4.9375l2.707 13.3594L26.3672 22h-1.7695L21.7148 8.26562l-.0703-3.32812h1.6641Zm20.9648 7.1367v2.9063c0 1.2031-.1406 2.2578-.4218 3.164-.2735.9063-.6719 1.6641-1.1954 2.2735-.5156.6015-1.1406 1.0547-1.875 1.3593-.7265.3047-1.539.4571-2.4374.4571-.8907 0-1.7032-.1524-2.4376-.4571-.7265-.3046-1.3554-.7578-1.8867-1.3593-.5234-.6094-.9297-1.3672-1.2187-2.2735-.2813-.9062-.4219-1.9609-.4219-3.164v-2.9063c0-1.2187.1406-2.28514.4219-3.1992.2812-.92188.6836-1.69141 1.207-2.30859.5313-.61719 1.1602-1.08203 1.8867-1.39453.7344-.31251 1.543-.46876 2.4258-.46876.8985 0 1.7109.15625 2.4375.46876.7344.3125 1.3633.77734 1.8867 1.39453.5235.61718.9258 1.38671 1.2071 2.30859.2812.91406.4218 1.9805.4218 3.1992Zm-2.8242 2.9063v-2.9297c0-.8672-.0703-1.6094-.2109-2.22658-.1328-.625-.3321-1.13281-.5977-1.52344-.2656-.39844-.5937-.6914-.9844-.8789-.3828-.19532-.8281-.29297-1.3359-.29297-.4922 0-.9336.09765-1.3242.29297-.3828.1875-.7109.48046-.9844.8789-.2656.39063-.4687.89844-.6094 1.52344-.1328.61718-.1992 1.35938-.1992 2.22658v2.9297c0 .8515.0703 1.5859.211 2.2031.1406.6094.3437 1.1094.6093 1.5.2735.3828.6055.668.9961.8555.3907.1875.8321.2812 1.3243.2812.5 0 .9453-.0937 1.3359-.2812.3906-.1875.7148-.4727.9726-.8555.2657-.3906.4649-.8906.5977-1.5.1328-.6172.1992-1.3516.1992-2.2031Zm8.5547-10.043V22h-2.8477V4.9375h2.8477Zm5.5313 7.4414v2.3906h-6.1875v-2.3906h6.1875Zm.7968-7.4414v2.39062h-6.9843V4.9375h6.9843Zm10.1368 0h2.8476v11.8477c0 1.3046-.2461 2.3554-.7383 3.1523-.4843.7969-1.1406 1.3789-1.9687 1.7461-.8203.3672-1.7344.5508-2.7422.5508-1.0469 0-1.9805-.1836-2.8008-.5508-.8203-.3672-1.4648-.9492-1.9336-1.7461-.4687-.7969-.7031-1.8477-.7031-3.1523V4.9375h2.8359v11.8477c0 .8125.1016 1.4414.3047 1.8867.2109.4453.5078.7539.8906.9258.3907.1718.8594.2578 1.4063.2578s1.0117-.086 1.3945-.2578c.3906-.1719.6875-.4805.8906-.9258.211-.4453.3165-1.0742.3165-1.8867V4.9375Zm17.3554 0V22h-2.789l-6.0235-11.8125V22h-2.7539V4.9375h2.7539L81.082 16.832V4.9375h2.7422ZM89.4258 4v1.66406c0 .49219-.082 1.00391-.2461 1.53516-.1563.53125-.3789 1.03906-.668 1.52344-.2812.47656-.6094.89453-.9844 1.2539l-1.3476-.90234c.2656-.48438.4844-.9961.6562-1.53516.1719-.54687.2579-1.16406.2579-1.85156V4h2.332Zm6.2695 14.6602c0-.2657-.0781-.5-.2344-.7032-.1484-.2109-.3906-.4179-.7265-.6211-.336-.2031-.7852-.4218-1.3477-.6562-.5859-.2422-1.1055-.4844-1.5586-.7266-.4531-.2422-.8359-.5078-1.1484-.7969-.3125-.2968-.5508-.6367-.7149-1.0195-.164-.3828-.246-.8281-.246-1.3359 0-.5235.0976-1.0078.2929-1.4531.1953-.4454.4766-.836.8438-1.1719.3672-.34377.8086-.60939 1.3242-.79689.5156-.19532 1.0976-.29297 1.7461-.29297.914 0 1.6953.16797 2.3437.5039.6563.32813 1.1563.78906 1.5 1.38286.3516.5859.5274 1.2617.5274 2.0273h-2.7305c0-.3203-.0586-.6094-.1758-.8672-.1172-.2656-.2968-.4766-.539-.6328-.2422-.1641-.5508-.2461-.9258-.2461-.3438 0-.6328.0664-.8672.1992-.2266.125-.3984.2969-.5156.5157-.1094.2109-.1641.4492-.1641.7148 0 .1953.0352.3672.1055.5156.0703.1485.1875.293.3515.4336.1641.1328.3829.2695.6563.4102.2812.1406.6367.3008 1.0664.4804.8516.3282 1.5586.668 2.1211 1.0196.5625.3515.9844.7617 1.2656 1.2304.2813.4688.4219 1.0508.4219 1.7461 0 .5625-.1055 1.0703-.3164 1.5235-.2031.4531-.5.8437-.8906 1.1718-.3829.3282-.8477.5821-1.3946.7618-.539.1718-1.1406.2578-1.8047.2578-.9921 0-1.832-.1953-2.5195-.586-.6797-.3984-1.1953-.9101-1.5469-1.5351-.3515-.625-.5273-1.2852-.5273-1.9805h2.6367c.0234.5.1289.8906.3164 1.1719.1953.2812.4414.4765.7383.5859.2969.1016.6055.1524.9258.1524.3828 0 .6992-.0508.9492-.1524.25-.1094.4375-.2695.5625-.4804.1328-.211.1992-.461.1992-.75ZM55.8984 33.5938H52.998l-.0097-1.8165h2.5683c.3972 0 .7357-.0781 1.0157-.2343.2799-.1563.4915-.3841.6347-.6836.1498-.2995.2246-.6608.2246-1.084 0-.4688-.0651-.8496-.1953-1.1426-.1302-.2995-.3353-.5176-.6152-.6543-.2734-.1367-.625-.2051-1.0547-.2051h-1.8652V40h-2.3731V25.7812h4.2383c.6641 0 1.2565.0782 1.7774.2344.5273.1498.9733.3809 1.3378.6934.3646.3125.6413.7129.8301 1.2012.1953.4817.293 1.0546.293 1.7187 0 .5794-.1237 1.1133-.3711 1.6016-.2474.4817-.6152.8789-1.1035 1.1914-.4818.306-1.0808.4883-1.7969.5469l-.6348.625ZM55.8105 40h-3.5937l1.0937-1.9824h2.5c.4232 0 .7715-.0912 1.045-.2735.2734-.1823.4785-.4362.6152-.7617.1367-.3255.2051-.7064.2051-1.1426 0-.4557-.0586-.8528-.1758-1.1914-.1172-.3385-.306-.5989-.5664-.7812-.2604-.1823-.6055-.2734-1.0352-.2734h-2.3925l.0195-1.8165h3.0566l.5469.6934c.6836.013 1.2402.1823 1.6699.5078.4297.319.7455.7324.9473 1.2403.2018.5078.3027 1.0514.3027 1.6308 0 .905-.1692 1.6667-.5078 2.2852-.3385.6119-.8236 1.0774-1.4551 1.3964-.625.3126-1.3834.4688-2.2754.4688Zm14.2676-1.9824V40h-5.9082v-1.9824h5.9082Zm-5.2832-12.2364V40h-2.373V25.7812h2.373Zm16.1817 5.9473v2.4219c0 1.0026-.1172 1.8815-.3516 2.6367-.2279.7552-.5599 1.3867-.9961 1.8945-.4297.5013-.9505.8789-1.5625 1.1329-.6055.2539-1.2825.3808-2.0312.3808-.7422 0-1.4193-.1269-2.0313-.3808-.6055-.254-1.1296-.6316-1.5723-1.1329-.4362-.5078-.7747-1.1393-1.0156-1.8945-.2344-.7552-.3515-1.6341-.3515-2.6367v-2.4219c0-1.0156.1171-1.9043.3515-2.666.2344-.7682.5697-1.4095 1.0059-1.9238.4427-.5144.9668-.9017 1.5722-1.1621.612-.2605 1.2858-.3907 2.0215-.3907.7487 0 1.4258.1302 2.0313.3907.612.2604 1.136.6477 1.5722 1.1621.4362.5143.7715 1.1556 1.0059 1.9238.2344.7617.3516 1.6504.3516 2.666Zm-2.3536 2.4219V31.709c0-.7227-.0585-1.3412-.1757-1.8555-.1107-.5208-.2767-.944-.4981-1.2695-.2213-.332-.4948-.5762-.8203-.7324-.319-.1628-.6901-.2442-1.1133-.2442-.4101 0-.778.0814-1.1035.2442-.319.1562-.5924.4004-.8203.7324-.2214.3255-.3906.7487-.5078 1.2695-.1107.5143-.166 1.1328-.166 1.8555v2.4414c0 .7096.0586 1.3216.1758 1.8359.1171.5078.2864.9245.5078 1.25.2278.319.5045.5567.83.7129.3256.1563.6934.2344 1.1036.2344.4166 0 .7877-.0781 1.1132-.2344.3256-.1562.5957-.3939.8106-.7129.2213-.3255.3874-.7422.498-1.25.1107-.5143.166-1.1263.166-1.8359Z" fill="#fff"/><path d="m87.4546 41.0928-1.4508 5.4145c-.2254.162-.5498.3413-.9732.5379-.4154.192-.9419.3205-1.5794.3856-.6296.0605-1.3814-.0264-2.2555-.2606-.7358-.1972-1.3766-.4969-1.9226-.8993-.5397-.4008-.9616-.9014-1.2657-1.5019-.3042-.6005-.4757-1.2935-.5146-2.079-.0373-.7918.0772-1.6845.3435-2.6781l.6546-2.4431c.2629-.9811.5958-1.8085.9988-2.4824.4093-.6722.8831-1.1956 1.4217-1.5703.5401-.381 1.1338-.6094 1.781-.6854.6489-.0823 1.3538-.0215 2.1147.1824.9621.2578 1.7184.6425 2.2689 1.1539.5584.5069.9189 1.1359 1.0816 1.8872.1706.7467.1579 1.5993-.0383 2.5577l-2.2356-.599c.1047-.592.1202-1.09.0465-1.4939-.0658-.4086-.2292-.7422-.4901-1.0008-.261-.2587-.6336-.4529-1.1178-.5826-.4402-.118-.8377-.1436-1.1926-.0769-.3549.0666-.6759.2334-.9631.5002-.2855.2605-.5411.6234-.7668 1.0886-.2258.4652-.4297 1.0374-.6116 1.7166l-.6597 2.462c-.1854.6917-.2849 1.302-.2985 1.8308-.0136.5288.0498.9839.1902 1.3653.1484.3768.3722.6861.6714.928.3008.2357.6682.4116 1.1021.5279.4276.1145.779.1615 1.0541.1409.2752-.0207.4962-.0659.6632-.1357.175-.0745.3149-.1313.4198-.1706l.7583-2.8299-2.2168-.594.4828-1.8016 4.4995 1.2056Z" fill="#84A4FC"/>
</svg>