<svg viewBox="0 0 85 85" fill="none" xmlns="http://www.w3.org/2000/svg"><circle cx="42.5" cy="42.5" r="42.5" fill="#D9D9D9"/><path d="M21.89 49.36V53H8.485v-3.11l6.157-7.828c.593-.822 1.057-1.541 1.39-2.156.334-.625.573-1.182.719-1.672.146-.5.219-.968.219-1.406 0-.677-.078-1.255-.235-1.734-.156-.49-.39-.865-.703-1.125-.302-.271-.677-.407-1.125-.407-.541 0-.99.167-1.344.5-.354.334-.62.792-.796 1.376-.167.572-.25 1.223-.25 1.953H8.125c0-1.365.276-2.615.828-3.75.563-1.136 1.35-2.037 2.36-2.703 1.02-.678 2.244-1.016 3.671-1.016 1.396 0 2.563.26 3.5.781a5.045 5.045 0 0 1 2.141 2.235c.49.958.734 2.104.734 3.437 0 .76-.099 1.5-.297 2.219a11.28 11.28 0 0 1-.843 2.125 17.112 17.112 0 0 1-1.344 2.14c-.531.73-1.13 1.485-1.797 2.266l-2.969 4.234h7.782Z" fill="#84A4FC"/><path id="text" d="M29.61 30.25V53H25.03V30.25h4.578Zm7.124 9.672v3.781h-8.28v-3.781h8.28Zm.875-9.672v3.797h-9.156V30.25h9.156Zm12.891 0h4.563v15.625c0 1.75-.323 3.177-.97 4.281-.635 1.094-1.515 1.896-2.64 2.407-1.125.5-2.411.75-3.86.75-1.458 0-2.755-.25-3.89-.75a5.719 5.719 0 0 1-2.656-2.407c-.625-1.104-.938-2.531-.938-4.281V30.25h4.563v15.625c0 .99.11 1.75.328 2.281.23.532.557.896.984 1.094.438.188.974.281 1.61.281.646 0 1.177-.093 1.593-.281.428-.198.75-.563.97-1.094.228-.531.343-1.291.343-2.281V30.25Zm23.969 0V53h-4.422l-7.14-14.234V53h-4.344V30.25h4.359l7.203 14.39V30.25h4.344Z"/>
<style>
    circle { fill: #D9D9D9 }
    #text { fill: #000; }

    @media (prefers-color-scheme: dark) {
        #text { fill: #FFF; }
        circle { fill: #010A0C}
    }
</style>
</svg>